<?xml version="1.0" standalone="no"?>
<!DOCTYPE svg PUBLIC "-//W3C//DTD SVG 20010904//EN"
 "http://www.w3.org/TR/2001/REC-SVG-20010904/DTD/svg10.dtd">
<svg version="1.0" xmlns="http://www.w3.org/2000/svg"
 width="1536.000000pt" height="1024.000000pt" viewBox="0 0 1536.000000 1024.000000"
 preserveAspectRatio="xMidYMid meet">

<g transform="translate(0.000000,1024.000000) scale(0.100000,-0.100000)"
fill="#000000" stroke="none">
<path d="M4660 7044 c-149 -19 -353 -96 -480 -182 -110 -74 -134 -108 -127
-184 9 -105 87 -228 87 -138 0 119 137 283 312 371 156 79 352 92 479 32 123
-57 204 -159 259 -322 52 -155 63 -332 35 -545 -17 -127 -72 -335 -91 -343 -7
-2 -135 54 -286 125 -150 71 -315 146 -367 166 -185 73 -411 117 -515 102 -30
-5 -61 -20 -94 -47 -80 -63 -79 -64 87 -65 180 -2 314 -28 571 -114 228 -75
590 -219 590 -234 0 -6 -25 -61 -55 -123 -138 -281 -323 -485 -530 -584 -250
-120 -509 -96 -666 60 -91 91 -159 266 -144 368 3 24 2 43 -3 43 -14 0 -206
-169 -216 -190 -12 -27 8 -92 46 -153 65 -102 188 -183 353 -233 84 -25 103
-27 280 -28 149 -1 205 3 262 16 467 114 842 471 1003 957 53 158 71 254 77
401 11 281 -66 503 -231 665 -68 67 -190 134 -291 161 -59 16 -274 27 -345 18z"/>
<path d="M8080 6497 c-19 -5 -45 -18 -58 -30 -51 -48 -48 -150 8 -199 40 -36
122 -40 164 -7 39 31 31 42 -10 14 -42 -29 -75 -32 -109 -9 -61 40 -58 180 4
214 44 23 103 2 121 -44 7 -18 9 -15 9 15 1 35 0 37 -47 46 -28 5 -61 6 -82 0z"/>
<path d="M8696 6402 c-21 -53 -47 -112 -57 -129 l-18 -33 32 0 c22 0 28 3 18
9 -10 7 -11 16 -4 37 9 27 14 29 64 32 53 3 55 2 66 -29 7 -18 10 -36 7 -40
-3 -5 14 -9 37 -9 37 0 41 2 25 13 -10 7 -39 64 -66 127 -26 63 -52 115 -56
117 -5 1 -26 -41 -48 -95z m62 -17 l22 -45 -46 0 c-40 0 -45 2 -39 18 4 9 12
29 17 45 5 15 13 27 17 27 4 0 17 -20 29 -45z"/>
<path d="M9344 6487 c16 -12 18 -22 12 -78 -8 -73 -15 -107 -28 -131 -7 -15
-12 -16 -28 -6 -22 14 -35 6 -27 -17 9 -23 54 -19 71 8 15 23 36 132 36 185 0
25 4 32 20 33 11 1 28 2 38 3 15 1 17 -11 20 -108 2 -71 -1 -113 -9 -122 -9
-12 -4 -14 32 -13 24 0 38 3 32 6 -10 3 -13 38 -13 123 0 85 3 120 13 123 6 3
-33 6 -87 6 -85 1 -97 -1 -82 -12z"/>
<path d="M9976 6469 c-39 -34 -52 -77 -41 -135 20 -112 184 -134 235 -33 52
100 -5 199 -114 199 -36 0 -52 -6 -80 -31z m138 -4 c43 -46 40 -151 -5 -196
-25 -25 -74 -24 -98 0 -30 30 -44 93 -31 142 21 78 87 105 134 54z"/>
<path d="M10603 6489 c14 -9 17 -26 17 -119 0 -93 -3 -110 -17 -119 -14 -8 -7
-10 32 -10 28 0 44 3 38 6 -9 3 -13 26 -13 64 l0 60 58 -3 57 -3 3 -54 c2 -37
-1 -57 -10 -62 -8 -5 7 -8 37 -8 28 1 42 3 33 6 -16 4 -18 19 -18 123 0 85 3
120 13 123 6 3 -10 6 -38 6 -39 0 -46 -2 -32 -10 12 -7 17 -23 17 -59 l0 -50
-61 0 -61 0 4 60 3 60 -40 0 c-32 -1 -37 -3 -22 -11z"/>
<path d="M8055 5865 c-133 -25 -252 -83 -357 -173 -85 -72 -125 -120 -192
-225 -172 -274 -147 -529 60 -607 52 -19 73 -21 174 -17 94 3 128 9 185 31
148 57 293 172 400 317 164 223 196 478 75 599 -70 70 -210 100 -345 75z m135
-67 c63 -33 85 -80 85 -183 -1 -229 -205 -583 -395 -684 -197 -105 -336 18
-287 254 67 320 325 629 527 634 14 1 46 -9 70 -21z"/>
<path d="M10000 5871 c-87 -17 -151 -62 -307 -218 l-153 -152 0 57 c-1 84 -25
207 -49 246 -68 110 -275 80 -415 -60 -91 -91 -147 -214 -112 -243 17 -14 20
-10 42 55 40 118 149 224 231 224 49 0 77 -24 93 -79 13 -45 33 -346 26 -377
-9 -35 -214 -234 -300 -292 -97 -65 -197 -98 -264 -87 -85 13 -87 13 -90 -19
-8 -67 43 -103 132 -92 117 15 250 107 425 294 l101 107 0 -78 c0 -212 73
-317 220 -317 149 0 284 76 507 285 111 105 135 137 114 158 -7 7 -45 -23
-128 -104 -133 -129 -248 -211 -329 -235 -65 -19 -93 -14 -135 24 -42 37 -58
111 -66 298 l-6 151 113 117 c175 180 288 244 410 233 66 -6 80 7 61 55 -17
44 -58 61 -121 49z"/>
<path d="M6042 5850 c-71 -26 -152 -71 -152 -85 0 -24 13 -23 73 6 74 34 88
36 112 9 17 -19 18 -26 6 -68 -11 -42 -192 -397 -365 -717 -75 -138 -75 -136
39 -138 55 -2 78 2 89 13 7 8 56 96 106 195 110 213 155 284 253 396 169 194
350 318 463 319 54 0 74 -22 74 -83 0 -39 -15 -75 -92 -224 -205 -395 -203
-390 -207 -475 -3 -77 -3 -78 31 -112 84 -84 251 -67 441 45 106 63 367 287
367 315 0 39 -34 22 -119 -58 -228 -217 -436 -320 -511 -253 -19 17 -21 28
-18 79 4 51 17 83 89 220 208 399 212 409 213 480 2 114 -55 160 -190 153 -68
-3 -93 -9 -159 -40 -108 -52 -192 -114 -313 -231 l-103 -101 41 85 c76 158 87
240 35 274 -33 22 -136 20 -203 -4z"/>
<path d="M10964 5855 c-134 -36 -263 -116 -375 -232 -172 -178 -279 -405 -266
-565 11 -133 85 -210 202 -211 122 -1 251 71 399 222 49 50 90 91 93 91 2 0 0
-8 -5 -17 -5 -10 -14 -47 -20 -83 -26 -154 35 -226 188 -223 143 2 309 95 491
275 121 120 304 342 294 358 -13 22 -32 7 -100 -78 -102 -127 -319 -340 -403
-396 -170 -112 -292 -107 -292 13 0 84 76 258 272 624 57 105 104 195 106 199
5 12 -70 28 -130 28 l-58 0 -31 -62 -31 -62 -15 29 c-26 50 -55 75 -107 90
-61 18 -144 18 -212 0z m196 -58 c49 -17 80 -67 80 -130 0 -43 -10 -68 -70
-179 -78 -144 -146 -240 -250 -351 -266 -284 -473 -275 -402 18 41 166 145
348 281 488 138 142 252 191 361 154z"/>
<path d="M7718 4483 c-38 -86 -36 -123 21 -383 7 -32 8 -33 13 -10 53 248 57
305 28 383 -12 31 -26 57 -31 57 -6 0 -20 -21 -31 -47z"/>
<path d="M7350 4309 c-66 -26 -95 -91 -66 -147 16 -31 47 -49 66 -37 6 3 -3
17 -20 32 -37 31 -39 66 -4 98 71 66 205 29 275 -75 52 -77 49 -160 -6 -160
-30 0 -43 25 -26 51 9 16 8 19 -9 19 -28 0 -46 -40 -30 -69 18 -35 57 -45 93
-24 41 25 53 62 38 129 -25 109 -128 195 -235 193 -28 0 -62 -5 -76 -10z"/>
<path d="M7975 4296 c-81 -37 -137 -112 -150 -197 -6 -42 -4 -49 22 -77 38
-41 64 -47 96 -21 42 32 31 89 -16 89 -17 0 -17 -1 -3 -16 12 -12 13 -20 6
-35 -15 -27 -46 -24 -66 6 -38 58 38 182 137 225 92 39 181 9 187 -63 2 -27
-2 -39 -19 -51 -12 -8 -27 -12 -32 -9 -5 3 -8 0 -5 -8 16 -47 88 3 88 60 -1
108 -121 155 -245 97z"/>
<path d="M3695 4210 c-4 -7 538 -10 1619 -10 1077 0 1626 3 1626 10 0 14
-3236 14 -3245 0z"/>
<path d="M8550 4210 c0 -7 548 -10 1625 -10 1077 0 1625 3 1625 10 0 7 -548
10 -1625 10 -1077 0 -1625 -3 -1625 -10z"/>
<path d="M7710 3970 c-27 -27 -26 -75 2 -94 30 -21 54 -20 78 4 27 27 25 56
-5 85 -29 30 -49 31 -75 5z"/>
<path d="M7850 3666 c0 -3 7 -12 16 -20 20 -20 68 -21 84 -1 19 23 3 31 -20
10 -19 -17 -50 -15 -50 5 0 5 -7 10 -15 10 -8 0 -15 -2 -15 -4z"/>
<path d="M4914 3576 c-30 -30 -34 -40 -34 -86 0 -43 5 -56 28 -80 38 -37 89
-47 135 -25 20 9 38 23 41 31 4 11 -2 9 -20 -5 -26 -21 -67 -27 -99 -15 -41
16 -58 109 -30 164 27 52 102 53 129 2 l15 -27 1 31 c0 27 -4 32 -31 38 -70
14 -100 7 -135 -28z"/>
<path d="M5250 3601 c0 -5 -3 -16 -6 -25 -3 -9 -1 -16 5 -16 6 0 11 6 11 14 0
15 45 30 60 21 15 -10 13 -202 -2 -208 -7 -3 4 -6 26 -6 32 -1 36 1 27 13 -8
9 -11 47 -9 107 3 91 4 94 27 97 17 3 30 -4 43 -20 l18 -23 0 28 0 27 -100 0
c-55 0 -100 -4 -100 -9z"/>
<path d="M5635 3502 c-26 -59 -52 -110 -58 -114 -7 -4 0 -8 16 -8 16 0 26 4
23 9 -4 5 -2 21 4 35 8 23 15 26 54 26 40 0 47 -4 60 -29 9 -16 12 -31 9 -35
-4 -3 9 -6 27 -6 30 0 32 1 18 18 -8 9 -32 59 -53 110 -21 51 -41 95 -45 97
-5 3 -29 -43 -55 -103z m60 12 c21 -51 20 -54 -20 -54 -19 0 -35 4 -35 10 0
10 32 80 37 80 1 0 10 -16 18 -36z"/>
<path d="M5953 3599 c14 -8 17 -25 17 -109 0 -69 -4 -100 -12 -103 -7 -3 4 -6
26 -6 31 -1 36 2 27 13 -6 7 -9 28 -7 47 3 32 6 34 46 40 70 9 94 69 44 108
-21 17 -41 21 -93 21 -50 -1 -62 -3 -48 -11z m109 -16 c36 -32 11 -98 -35 -91
-16 2 -22 12 -25 41 -2 21 -1 45 2 53 7 19 35 18 58 -3z"/>
<path d="M6285 3594 c13 -13 16 -35 14 -103 -1 -47 -6 -92 -11 -98 -8 -10 -3
-13 19 -13 17 0 30 5 30 13 0 7 22 46 49 86 46 69 49 73 52 46 2 -15 2 -54 0
-87 l-3 -58 35 0 c23 0 30 3 22 9 -10 6 -13 35 -10 115 l3 106 -34 0 c-27 0
-31 -3 -22 -13 8 -11 -1 -31 -42 -88 l-52 -74 -3 79 c-2 57 1 82 10 87 8 6 -4
9 -30 9 -40 0 -42 -1 -27 -16z"/>
<path d="M6663 3599 c14 -8 17 -25 17 -109 0 -69 -4 -100 -12 -103 -7 -3 5 -6
27 -6 30 -1 36 2 27 11 -7 7 -12 31 -12 55 l0 43 56 0 56 0 -4 -55 -3 -55 35
0 c23 0 30 3 22 9 -10 6 -13 35 -10 115 l3 106 -34 0 c-27 0 -32 -3 -23 -12 7
-7 12 -32 12 -56 l0 -43 -52 3 -53 3 0 53 0 52 -35 0 c-29 -1 -32 -2 -17 -11z"/>
<path d="M7048 3598 c17 -17 17 -205 0 -211 -7 -3 3 -6 22 -6 l35 -1 -3 55 -4
55 56 0 56 0 0 -49 c0 -30 -5 -51 -12 -54 -7 -3 5 -6 27 -6 30 -1 36 2 27 11
-8 8 -12 46 -12 103 0 57 4 95 12 103 9 9 4 12 -26 12 -32 0 -37 -2 -27 -14 7
-8 11 -32 9 -53 l-3 -38 -53 -3 -54 -3 4 55 3 56 -34 0 c-27 0 -32 -3 -23 -12z"/>
<path d="M7471 3596 c-34 -19 -50 -54 -51 -107 0 -58 26 -94 80 -110 32 -10
44 -9 77 7 111 54 82 225 -39 224 -24 -1 -54 -7 -67 -14z m108 -22 c15 -19 21
-41 21 -79 0 -64 -27 -105 -69 -105 -42 0 -64 32 -69 98 -3 47 0 62 18 85 29
36 71 37 99 1z"/>
<path d="M7804 3597 c15 -11 17 -27 14 -115 -3 -100 -3 -102 20 -102 12 0 22
6 22 14 0 8 23 47 51 88 l50 73 -3 -88 -3 -87 35 1 c19 0 29 3 23 6 -9 3 -13
35 -13 108 0 73 4 105 13 108 6 3 -5 6 -25 6 -29 1 -36 -2 -32 -14 6 -14 -84
-154 -98 -155 -13 0 -9 145 4 158 9 9 2 12 -32 12 -38 0 -42 -2 -26 -13z"/>
<path d="M8403 3599 c14 -8 17 -25 17 -102 0 -59 -4 -97 -12 -105 -9 -9 -5
-12 18 -11 16 0 23 3 17 6 -9 3 -13 31 -13 91 0 49 4 82 9 77 5 -6 25 -46 44
-90 20 -44 40 -79 44 -79 4 1 24 38 43 83 19 44 39 81 43 81 5 0 7 -38 5 -85
l-3 -85 30 1 c17 0 24 3 18 6 -9 3 -13 35 -13 108 0 73 4 105 13 108 6 3 -1 6
-18 6 -28 1 -32 -4 -64 -77 -19 -42 -37 -81 -41 -85 -4 -4 -24 30 -46 77 -38
84 -40 86 -74 86 -29 -1 -32 -2 -17 -11z"/>
<path d="M8843 3599 c14 -8 17 -25 17 -109 0 -69 -4 -100 -12 -104 -7 -2 28
-4 77 -3 88 2 90 3 93 27 l4 25 -22 -23 c-17 -18 -30 -22 -63 -20 l-42 3 -3
48 -3 47 40 0 c22 0 42 -5 44 -12 3 -7 6 2 6 21 1 31 0 33 -12 17 -9 -12 -23
-17 -42 -14 -28 3 -30 6 -30 48 l0 45 42 3 c33 2 44 -1 57 -20 l16 -22 0 27 0
27 -92 0 c-68 -1 -88 -3 -75 -11z"/>
<path d="M9188 3604 c8 -4 12 -36 12 -109 0 -73 -4 -105 -12 -109 -7 -3 23 -4
66 -3 74 2 80 4 100 30 19 26 19 30 5 55 -12 21 -25 29 -67 36 l-52 9 0 43 c0
43 0 44 35 44 22 0 41 -8 55 -22 l21 -22 -4 24 c-4 24 -7 25 -88 27 -46 1 -78
0 -71 -3z m130 -154 c4 -38 -16 -60 -55 -60 -21 0 -23 4 -23 51 l0 50 38 -3
c34 -3 37 -6 40 -38z"/>
<path d="M9529 3596 c8 -10 11 -48 9 -115 l-3 -101 83 0 c45 0 82 4 82 9 0 5
3 18 7 28 5 15 2 15 -19 -4 -17 -16 -37 -23 -66 -23 l-42 0 0 50 0 50 39 0
c22 0 42 -5 44 -12 3 -7 6 3 6 22 0 19 -3 30 -7 24 -4 -6 -24 -14 -44 -17
l-38 -6 0 50 0 49 40 0 c27 0 45 -6 58 -20 l19 -21 -4 26 c-5 24 -7 25 -90 25
-73 0 -84 -2 -74 -14z"/>
<path d="M9919 3601 c21 -13 10 -166 -13 -189 -15 -15 -18 -15 -26 -2 -9 13
-11 13 -20 0 -6 -10 -5 -19 5 -29 12 -12 17 -12 39 3 30 19 36 38 44 138 l7
73 33 3 33 3 -3 -110 -3 -111 35 0 c23 0 30 3 22 9 -10 6 -13 35 -10 115 l3
106 -80 0 c-50 0 -75 -4 -66 -9z"/>
<path d="M10254 3594 c17 -17 18 -33 7 -141 l-7 -73 28 0 c18 0 28 5 28 15 0
8 21 47 48 87 44 67 47 70 50 43 2 -15 2 -54 0 -87 l-3 -58 35 0 c23 0 30 3
22 9 -10 6 -13 35 -10 115 l3 106 -27 0 c-19 0 -26 -4 -22 -14 3 -8 -19 -47
-48 -87 l-53 -73 -3 73 c-2 45 2 78 9 87 9 12 4 14 -30 14 -39 0 -41 -1 -27
-16z"/>
</g>
</svg>
