<?xml version="1.0" standalone="no"?>
<!DOCTYPE svg PUBLIC "-//W3C//DTD SVG 20010904//EN"
 "http://www.w3.org/TR/2001/REC-SVG-20010904/DTD/svg10.dtd">
<svg version="1.0" xmlns="http://www.w3.org/2000/svg"
 width="1536.000000pt" height="1024.000000pt" viewBox="0 0 1536.000000 1024.000000"
 preserveAspectRatio="xMidYMid meet">

<g transform="translate(0.000000,1024.000000) scale(0.100000,-0.100000)"
fill="#000000" stroke="none">
<path d="M7642 8573 c-11 -21 -22 -50 -26 -65 -4 -18 -13 -28 -25 -28 -10 0
-24 -7 -31 -15 -10 -12 -6 -22 23 -55 23 -25 42 -60 52 -97 9 -32 18 -64 20
-70 7 -22 24 -14 31 15 15 68 42 128 72 160 35 38 30 62 -14 62 -18 0 -24 6
-24 22 0 26 -38 108 -51 108 -5 0 -17 -17 -27 -37z"/>
<path d="M7381 8327 c-44 -15 -80 -61 -65 -84 16 -26 29 -26 62 2 45 37 95 34
138 -9 35 -35 43 -70 24 -107 -15 -28 -58 -25 -62 4 -4 31 -52 32 -56 1 -7
-51 66 -72 113 -31 73 63 15 206 -95 230 -14 3 -40 0 -59 -6z"/>
<path d="M7842 8310 c-43 -27 -76 -99 -68 -149 11 -69 96 -108 130 -59 11 15
12 26 5 40 -13 25 -53 20 -57 -7 -6 -33 -19 -38 -41 -16 -37 37 -21 110 30
137 46 23 96 18 125 -13 20 -22 28 -25 42 -16 24 15 17 53 -14 81 -33 29 -106
30 -152 2z"/>
<path d="M7636 8174 c-32 -31 -10 -94 33 -94 23 0 51 31 51 57 0 23 -29 53
-53 53 -8 0 -23 -7 -31 -16z"/>
<path d="M7070 8052 c-101 -65 -168 -128 -240 -224 -136 -180 -235 -472 -245
-723 l-4 -110 9 87 c46 436 226 782 498 961 40 26 72 50 72 52 0 12 -19 2 -90
-43z"/>
<path d="M8176 8092 c5 -4 36 -26 69 -47 305 -204 479 -587 490 -1080 8 -367
-71 -689 -228 -920 -59 -86 -188 -217 -263 -265 -75 -49 -85 -64 -16 -24 166
97 300 248 389 442 51 109 78 196 110 340 25 117 27 145 27 362 1 183 -3 256
-17 330 -40 219 -97 382 -179 519 -65 108 -205 251 -304 309 -62 37 -104 55
-78 34z"/>
<path d="M7555 7706 c-149 -25 -263 -78 -357 -165 l-58 -53 0 -93 c0 -141 10
-217 28 -213 10 2 20 31 32 89 47 230 182 369 390 399 143 22 283 -29 376
-135 87 -98 164 -304 164 -437 0 -57 -1 -58 -41 -85 -53 -35 -94 -34 -184 2
-83 33 -243 45 -337 26 -177 -37 -301 -167 -324 -340 -6 -46 -5 -51 13 -51 14
0 22 11 30 43 27 101 134 202 258 242 88 29 253 27 359 -4 94 -27 142 -24 191
13 18 14 37 26 41 26 16 0 -7 -211 -35 -323 -52 -204 -146 -374 -275 -494 -78
-73 -131 -106 -229 -141 -97 -35 -258 -36 -356 -3 -187 64 -310 216 -319 396
-6 107 14 177 67 237 28 31 37 48 31 59 -7 11 -19 5 -55 -31 -161 -156 -167
-388 -15 -553 207 -225 662 -241 970 -34 216 145 363 373 421 652 19 92 16
305 -5 399 -37 161 -94 272 -196 380 -149 157 -367 228 -585 192z"/>
<path d="M7469 5741 c-23 -19 -23 -20 -6 -38 18 -17 19 -17 39 7 19 24 20 24
34 5 19 -26 18 -48 -7 -78 -28 -37 -88 -54 -125 -36 -17 8 -29 22 -29 33 0 27
-29 43 -49 27 -36 -30 0 -93 64 -112 73 -22 159 29 175 102 9 39 -10 83 -41
98 -31 14 -28 14 -55 -8z"/>
<path d="M7818 5744 c-76 -41 -56 -143 35 -184 54 -25 84 -25 124 0 38 23 56
54 48 81 -9 26 -62 24 -57 -3 3 -20 -34 -48 -66 -48 -75 0 -143 91 -97 130 12
10 18 8 33 -10 12 -15 25 -21 35 -17 23 9 21 44 -2 57 -24 12 -20 13 -53 -6z"/>
<path d="M7635 5720 c-37 -40 19 -95 64 -63 26 18 27 59 2 73 -29 15 -46 12
-66 -10z"/>
<path d="M7656 5608 c-3 -7 -10 -31 -17 -52 -6 -22 -29 -58 -50 -81 -33 -36
-37 -44 -25 -55 8 -6 24 -9 34 -6 16 5 20 0 26 -31 3 -21 15 -54 27 -72 l21
-35 24 40 c13 21 27 54 30 72 4 21 11 31 19 28 7 -2 21 1 31 8 16 12 15 15
-15 42 -17 16 -42 56 -56 89 -24 60 -41 78 -49 53z"/>
<path d="M6850 4867 c-61 -31 -68 -141 -11 -184 27 -21 95 -16 117 9 l19 22
-25 -17 c-63 -43 -115 -7 -114 80 0 46 4 59 23 74 31 26 57 24 86 -6 l25 -24
0 23 c0 18 -7 25 -31 30 -45 9 -61 7 -89 -7z"/>
<path d="M7621 4863 c8 -9 9 -35 5 -78 -8 -83 -13 -94 -37 -88 -13 4 -19 0
-19 -12 0 -11 7 -15 23 -13 28 4 46 53 46 131 1 57 1 57 31 57 l30 0 0 -89 c0
-62 -4 -91 -12 -94 -7 -3 5 -6 27 -6 25 0 35 2 27 8 -10 6 -13 32 -10 100 3
103 4 103 -75 100 -38 -2 -45 -5 -36 -16z"/>
<path d="M8008 4864 c-36 -19 -48 -43 -48 -96 0 -36 6 -50 29 -72 66 -63 161
-16 161 80 0 83 -71 127 -142 88z m86 -13 c42 -46 27 -155 -22 -168 -50 -12
-85 36 -78 107 7 69 62 103 100 61z"/>
<path d="M8403 4873 c-22 -4 -23 -9 -23 -98 0 -65 -4 -95 -12 -98 -7 -3 5 -6
27 -6 30 -1 36 2 27 11 -7 7 -12 29 -12 51 l0 38 48 -3 c45 -3 47 -4 50 -36 2
-18 -2 -40 -9 -48 -9 -12 -7 -14 17 -14 l29 0 -3 99 c-3 96 -4 99 -28 104 -19
3 -22 1 -13 -9 6 -7 9 -28 7 -46 -3 -32 -4 -33 -48 -33 -44 0 -45 1 -48 33 -2
18 2 40 9 48 6 8 10 13 8 13 -2 -1 -14 -4 -26 -6z"/>
<path d="M7226 4778 c-21 -51 -43 -96 -50 -100 -6 -4 1 -8 17 -8 17 0 26 4 22
11 -4 5 -4 21 -1 35 5 20 12 24 45 24 31 0 40 -5 50 -27 10 -21 9 -28 -1 -34
-8 -6 2 -9 27 -9 22 0 35 4 28 8 -6 4 -28 49 -48 100 -20 50 -40 92 -44 92 -4
0 -25 -42 -45 -92z m53 11 c6 -18 11 -34 11 -35 0 -2 -14 -4 -31 -4 -26 0 -30
3 -24 18 4 9 10 25 12 35 8 26 20 21 32 -14z"/>
<path d="M5051 4730 c-120 -26 -253 -87 -320 -149 -36 -33 -41 -44 -42 -82 0
-24 -4 -86 -7 -137 -4 -52 -4 -96 -1 -98 4 -2 14 24 24 59 73 261 254 400 501
384 189 -11 328 -138 370 -336 23 -109 13 -384 -15 -430 -6 -9 -25 -2 -70 24
-165 97 -328 137 -464 115 -134 -21 -223 -86 -282 -202 -44 -88 -48 -136 -5
-62 98 171 332 242 585 178 70 -18 225 -88 225 -102 0 -22 -52 -166 -88 -243
-102 -221 -248 -379 -424 -458 -162 -73 -350 -69 -500 11 -110 58 -182 173
-198 314 l-9 79 3 -90 c2 -77 6 -100 32 -156 53 -113 126 -176 254 -220 84
-29 287 -32 395 -6 103 26 277 115 362 187 158 134 302 361 359 570 35 129 44
324 20 434 -44 196 -163 329 -356 398 -63 23 -274 34 -349 18z"/>
<path d="M6665 4155 c-27 -8 -53 -14 -57 -15 -4 0 -37 -21 -74 -46 l-67 -46 6
29 c4 15 9 38 13 51 l6 22 -136 0 c-84 0 -136 -4 -136 -10 0 -5 15 -10 33 -10
47 0 77 -24 77 -63 0 -18 -51 -193 -114 -390 l-113 -358 65 3 65 3 24 75 c13
41 60 187 104 324 l81 249 56 57 c116 116 306 139 340 42 14 -41 4 -83 -87
-365 -45 -137 -81 -265 -81 -284 0 -72 54 -133 120 -133 45 0 107 22 152 55
65 48 159 168 119 153 -5 -1 -30 -29 -56 -61 -68 -84 -161 -123 -195 -82 -25
30 -12 94 70 346 94 286 105 352 70 407 -11 18 -36 40 -55 48 -43 18 -163 17
-230 -1z"/>
<path d="M7849 4151 c-177 -57 -339 -253 -379 -459 -56 -283 142 -466 413
-382 204 63 365 272 392 510 12 106 -37 240 -108 294 -75 57 -207 72 -318 37z
m201 -17 c75 -30 107 -124 90 -261 -30 -231 -155 -469 -283 -535 -55 -28 -140
-30 -184 -4 -72 44 -96 148 -69 304 16 95 69 246 108 311 98 164 222 231 338
185z"/>
<path d="M8955 4158 c-39 -14 -93 -53 -128 -92 -48 -54 -87 -115 -78 -120 5
-3 17 6 27 21 32 50 108 125 146 144 48 25 71 24 102 -3 35 -31 46 -97 46
-282 l0 -151 -74 -110 c-98 -146 -137 -189 -192 -215 -38 -19 -50 -21 -71 -11
-23 11 -25 15 -19 56 10 60 -5 85 -49 85 -54 0 -82 -37 -76 -100 9 -83 117
-113 219 -61 50 26 133 115 206 224 32 49 60 87 61 85 1 -2 5 -51 8 -110 6
-132 23 -172 88 -206 36 -19 54 -22 97 -18 30 4 70 15 91 25 37 20 171 153
171 171 0 20 -16 9 -59 -41 -122 -141 -225 -147 -250 -13 -5 27 -12 122 -16
212 l-7 163 68 100 c37 55 89 122 116 149 83 84 157 89 144 10 -8 -49 14 -80
58 -80 82 0 101 126 25 165 -36 19 -100 19 -144 1 -51 -22 -126 -96 -197 -197
l-63 -90 -7 88 c-10 109 -20 142 -58 178 -26 25 -40 29 -93 32 -34 1 -75 -2
-92 -9z"/>
<path d="M10374 4152 c-59 -21 -165 -94 -215 -149 -82 -91 -155 -227 -185
-343 -24 -95 -16 -213 19 -273 40 -68 85 -92 177 -92 104 0 166 31 258 130
l69 74 -1 -69 c-1 -63 1 -71 28 -99 75 -78 220 -33 326 100 39 49 48 69 33 69
-5 -1 -26 -24 -47 -52 -63 -81 -151 -127 -193 -100 -6 4 -17 20 -22 36 -14 35
-14 35 108 416 54 168 102 315 105 328 7 21 5 22 -57 22 l-64 0 -18 -59 -18
-59 -26 51 c-33 66 -72 87 -161 87 -36 -1 -88 -9 -116 -18z m191 -18 c55 -26
70 -58 70 -149 0 -65 -7 -102 -39 -200 -44 -139 -76 -206 -139 -292 -124 -167
-278 -209 -338 -92 -48 95 -2 326 102 512 105 187 237 272 344 221z"/>
<path d="M7646 2872 c-24 -47 -24 -48 -5 -82 10 -19 18 -43 19 -52 0 -10 5
-18 10 -18 6 0 13 8 16 18 3 9 12 33 21 53 14 33 13 39 -7 82 -12 26 -24 47
-26 47 -2 0 -15 -21 -28 -48z"/>
<path d="M7379 2762 c-43 -36 1 -78 51 -48 38 22 85 20 131 -6 21 -12 42 -19
45 -15 22 22 -100 87 -162 87 -26 0 -51 -7 -65 -18z"/>
<path d="M7803 2750 c-37 -17 -63 -36 -63 -45 0 -20 13 -19 52 5 39 23 96 26
124 5 25 -19 48 -19 65 1 11 14 10 20 -14 40 -38 32 -86 30 -164 -6z"/>
<path d="M4998 2733 c397 -2 1047 -2 1445 0 397 1 72 2 -723 2 -795 0 -1120
-1 -722 -2z"/>
<path d="M8893 2733 c394 -2 1040 -2 1435 0 394 1 71 2 -718 2 -789 0 -1112
-1 -717 -2z"/>
<path d="M7640 2630 c-25 -46 23 -88 61 -54 23 21 24 37 3 58 -21 22 -51 20
-64 -4z"/>
<path d="M7852 2328 c3 -7 17 -14 32 -16 30 -4 55 12 41 25 -4 5 -10 2 -12 -4
-5 -15 -43 -17 -43 -3 0 6 -5 10 -11 10 -6 0 -9 -6 -7 -12z"/>
<path d="M5320 2261 c-79 -79 18 -213 101 -140 l24 20 -27 -17 c-54 -32 -98 5
-98 81 0 65 71 101 104 53 l16 -22 0 24 c0 23 -5 25 -45 28 -39 2 -50 -1 -75
-27z"/>
<path d="M5600 2268 c1 -20 2 -21 11 -5 5 9 19 17 30 17 19 0 20 -5 17 -90 -3
-84 -2 -90 17 -90 19 0 20 6 17 90 -3 80 -1 90 14 90 9 0 23 -8 31 -17 13 -17
14 -17 11 2 -3 18 -12 20 -76 23 -69 3 -72 2 -72 -20z"/>
<path d="M5931 2228 c-13 -35 -32 -78 -42 -95 -18 -33 -18 -33 2 -33 11 0 18
4 15 9 -4 5 -2 21 4 35 7 18 14 24 27 20 17 -5 17 -5 1 6 -17 10 -17 13 -2 42
13 26 18 29 25 16 5 -9 10 -24 12 -34 2 -11 9 -29 16 -42 7 -13 10 -30 7 -38
-4 -10 3 -14 26 -14 29 0 30 1 16 18 -9 9 -29 52 -44 94 -16 43 -31 78 -34 78
-3 0 -16 -28 -29 -62z"/>
<path d="M6208 2281 c10 -6 13 -31 10 -95 -3 -85 -3 -86 21 -86 19 0 21 3 12
14 -7 8 -11 27 -9 43 2 23 9 29 33 31 39 5 55 19 55 48 0 32 -36 54 -90 54
-28 0 -40 -3 -32 -9z m82 -15 c18 -23 8 -61 -17 -64 -17 -2 -23 3 -28 27 -10
48 17 70 45 37z"/>
<path d="M6495 2195 c0 -91 1 -95 22 -95 16 0 21 4 17 15 -4 8 11 37 33 67 34
48 38 50 41 29 2 -13 2 -44 0 -67 -3 -39 -1 -44 17 -44 19 0 20 7 20 95 0 91
-1 95 -22 95 -15 0 -21 -5 -17 -14 3 -8 -12 -38 -33 -67 l-38 -54 -3 59 c-2
41 1 62 10 67 9 6 3 9 -17 9 l-30 0 0 -95z"/>
<path d="M6818 2281 c10 -6 13 -31 10 -95 -3 -81 -2 -86 17 -86 18 0 20 5 17
45 l-4 45 42 0 42 0 -4 -45 c-3 -40 -1 -45 17 -45 19 0 20 7 20 95 l0 95 -30
-1 c-16 0 -24 -3 -17 -6 6 -2 12 -20 12 -39 0 -33 -1 -34 -41 -34 l-41 0 4 40
c3 39 3 40 -27 40 -20 0 -26 -3 -17 -9z"/>
<path d="M7155 2195 l0 -95 30 1 c17 0 24 3 18 6 -8 2 -13 22 -13 44 l0 39 41
0 41 0 -4 -45 c-3 -44 -3 -45 27 -45 20 0 26 3 17 9 -10 6 -13 31 -10 95 3 81
2 86 -17 86 -18 0 -20 -5 -16 -47 3 -40 1 -45 -14 -40 -9 4 -28 7 -42 7 -23 0
-25 3 -21 40 3 35 1 40 -17 40 -19 0 -20 -6 -20 -95z"/>
<path d="M7505 2265 c-19 -18 -25 -35 -25 -70 0 -120 151 -129 167 -9 11 85
-84 138 -142 79z m94 1 c7 -8 15 -30 18 -50 12 -77 -48 -136 -89 -86 -23 29
-25 112 -2 134 19 20 58 21 73 2z"/>
<path d="M7818 2278 c7 -7 12 -41 12 -83 0 -42 -5 -76 -12 -83 -9 -9 -6 -12
16 -12 21 0 27 4 22 15 -3 9 10 37 32 68 33 46 37 49 40 28 2 -13 2 -44 0 -67
-3 -43 -2 -44 27 -44 20 0 26 3 17 9 -10 6 -13 31 -10 95 3 82 2 86 -19 86
-15 0 -20 -5 -16 -18 2 -10 -11 -38 -34 -67 l-38 -50 -3 59 c-2 41 1 62 10 67
8 6 1 9 -21 9 -27 0 -32 -3 -23 -12z"/>
<path d="M8348 2283 c8 -3 12 -31 12 -88 0 -57 -4 -85 -12 -88 -7 -3 0 -6 16
-6 23 -1 26 1 17 13 -7 9 -11 40 -9 78 l3 63 29 -72 c16 -40 32 -73 35 -73 4
0 18 30 31 66 14 36 28 68 33 71 12 7 8 -122 -5 -135 -9 -9 -4 -12 22 -12 26
0 31 3 22 12 -17 17 -16 165 1 171 6 3 1 6 -13 6 -22 1 -29 -7 -49 -61 -14
-35 -27 -66 -30 -70 -4 -4 -19 24 -35 62 -25 62 -31 70 -55 69 -14 0 -20 -3
-13 -6z"/>
<path d="M8715 2195 l0 -96 60 3 c47 2 60 7 63 20 3 16 1 16 -28 2 -51 -26
-60 -15 -60 76 l0 80 30 0 c17 0 33 -7 39 -17 9 -16 10 -16 11 5 0 20 -4 22
-57 22 l-58 0 0 -95z"/>
<path d="M8998 2281 c10 -6 13 -31 10 -96 l-3 -87 48 5 c56 5 70 15 70 53 0
31 -26 54 -60 54 -20 0 -23 5 -23 35 0 30 3 35 23 35 13 0 28 -5 35 -12 9 -9
12 -8 12 5 0 14 -10 17 -62 17 -38 0 -58 -4 -50 -9z m86 -97 c9 -8 16 -22 16
-29 0 -18 -28 -45 -46 -45 -10 0 -14 13 -14 45 0 49 15 59 44 29z"/>
<path d="M9288 2281 c10 -6 13 -31 10 -95 l-3 -86 56 0 c43 0 58 4 63 16 10
25 7 26 -16 10 -12 -9 -33 -16 -45 -16 -21 0 -23 5 -23 45 0 25 2 45 4 45 3 0
16 -4 30 -10 22 -8 26 -7 26 9 0 14 -6 17 -30 13 -29 -4 -30 -3 -30 32 0 33 2
36 30 36 17 0 33 -7 39 -17 9 -16 10 -16 11 5 0 21 -4 22 -67 22 -41 0 -63 -4
-55 -9z"/>
<path d="M9608 2283 c15 -6 17 -116 2 -143 -6 -11 -17 -17 -25 -14 -10 4 -15
0 -15 -11 0 -25 32 -14 47 15 7 14 13 53 13 88 0 60 1 62 26 62 l25 0 -3 -90
-3 -90 30 1 c17 0 24 3 18 6 -9 3 -13 31 -13 88 0 57 4 85 13 88 6 3 -19 5
-58 5 -38 0 -64 -2 -57 -5z"/>
<path d="M9895 2195 c0 -91 1 -95 22 -95 15 0 21 5 17 14 -6 14 45 98 67 112
7 4 10 -14 7 -60 -3 -61 -1 -66 17 -66 19 0 20 7 20 95 0 91 -1 95 -22 95 -16
0 -21 -4 -17 -15 5 -12 -28 -65 -69 -110 -5 -6 -7 17 -5 58 3 61 1 67 -17 67
-19 0 -20 -7 -20 -95z"/>
<path d="M8788 2212 c-17 -7 -16 -8 2 -20 17 -11 20 -10 20 8 0 11 -1 20 -2
19 -2 0 -11 -4 -20 -7z"/>
</g>
</svg>
