<svg xmlns="http://www.w3.org/2000/svg" xmlns:xlink="http://www.w3.org/1999/xlink" width="28" height="48" viewBox="0 0 608.7900 1048.1334" shape-rendering="geometricPrecision"><defs id="defs4">
    <linearGradient id="linearGradient4617">
      <stop id="stop4619" style="stop-color:#6B5340" offset="0"/>
      <stop id="stop4621" style="stop-color:#E8DFD0" offset="1"/>
    </linearGradient>
    <radialGradient id="radialGradient2540" xlink:href="#linearGradient4617" gradientUnits="userSpaceOnUse" cy="389.15" cx="428.32" gradientTransform="matrix(.59695 .35268 -1.0603 1.7946 641.19 -509.59)" r="154.31"/>
    <radialGradient id="radialGradient2542" xlink:href="#linearGradient4617" gradientUnits="userSpaceOnUse" cy="390.7" cx="450.21" gradientTransform="matrix(.32047 .20208 -1.0452 1.6576 737.89 -389.45)" r="167.04"/>
    <linearGradient id="linearGradient2544" y2="141.2" gradientUnits="userSpaceOnUse" x2="580.8" gradientTransform="translate(55.948 -49.288)" y1="859.21" x1="165.18">
      <stop id="stop4678" style="stop-color:#2a291b" offset="0"/>
      <stop id="stop4686" style="stop-color:#414027" offset=".044215"/>
      <stop id="stop4680" style="stop-color:#e7e3a5" offset=".15159"/>
      <stop id="stop4682" style="stop-color:#ffffd9" offset="1"/>
    </linearGradient>
    <linearGradient id="linearGradient2546" y2="450.92" gradientUnits="userSpaceOnUse" x2="310.38" y1="520.19" x1="428.94">
      <stop id="stop3429" style="stop-color:#414027" offset="0"/>
      <stop id="stop3431" style="stop-color:#e7e3a5" offset=".39397"/>
      <stop id="stop3433" style="stop-color:#ffffd9" offset="1"/>
    </linearGradient>
  <radialGradient id="glow" cx="0.5" cy="0.5" r="0.5"><stop offset="0" stop-color="#F7E3A0" stop-opacity="0.95"/><stop offset="0.55" stop-color="#E8C66C" stop-opacity="0.55"/><stop offset="1" stop-color="#E8C66C" stop-opacity="0"/></radialGradient></defs><g transform="translate(-0.0000 1048.1334) scale(1,-1)"><g id="layer1" transform="translate(-1.3321 -1.2756)">
    <g id="g4871" transform="translate(0 3.9398)">
      <g id="g2534" transform="matrix(1.4601 0 0 1.4601 -321.54 -136.87)">
        <path id="path2391" style="fill-rule:evenodd;fill:url(#radialGradient2540);stroke:#2A1A10;stroke-width:7;stroke-linejoin:round" d="m638.08 91.915c-44.68 25.105-369.77 526.64-297.06 491.54 71.18-29.06 115.27 8.33 118.56 4 9.16-12.11 170.51-313.05 178.5-495.54z"/>
        <path id="path2387" style="fill-rule:evenodd;fill:url(#radialGradient2542)" d="m635.77 93.247c-9.53-10.91-319.4 494.84-316.07 490.21-14.65-7.99-26.28-19.98-7.63-61.28 18.65-41.29 253.1-412.95 323.7-428.93z"/>
        <path id="path2385" style="fill-rule:evenodd;fill:url(#linearGradient2544)" d="m221.13 809.92c2.66-98.58 337.02-654.35 415.62-718 0-0.005-251.77 342.35-375.66 667.38-31.11 4.61-25.01 33.33-37.06 50.28l-2.9 0.34z"/>
        <path id="path2651" style="opacity:.86325;fill-rule:evenodd;fill:url(#linearGradient2546)" d="m270.19 677.3c96.41-199.65 306.4-536.66 366.56-585.38 0-0.005-242.37 329.56-368.52 648.98l1.96-63.6z"/>
      </g>
    </g>
  </g></g><circle cx="6" cy="6" r="9" fill="url(#glow)"/><circle cx="6" cy="6" r="4.2" fill="none" stroke="#6B5340" stroke-width="1.4"/></svg>
